<svg xmlns="http://www.w3.org/2000/svg" xml:space="preserve" viewBox="0 0 486.81 181.32"><path fill="#f9a11b" d="M343.27 85.94c0 14.65-.03 29.3.05 43.94 5.96.03 11.87.02 17.9.02v12.42c-.04.04-.06.05-.09.09-5.8-.02-11.61.18-17.4-.05-4.47-.18-8.86-1.59-11.72-5.6-1.5-2.11-2.22-4.68-2.27-7.27-.24-11.7-.28-23.4-.38-35.09-.03-2.86 0-5.73 0-8.7-.5-.03-.93-.08-1.36-.08-6.2 0-13.46-.1-19.65.05-3.48.08-6.83.97-9.13 3.88-2.34 2.98-3.66 6.46-3.69 10.23-.11 13.63-.08 27.26-.1 40.9v1.63H281.6V73.22h13.78v10.3c.19.08.37.16.56.24.43-.72.88-1.44 1.28-2.18 1.22-2.26 2.51-4.36 4.82-5.8 2.3-1.43 4.76-2.23 7.36-2.29 6.22-.14 13.51-.04 19.91-.04V50.96h13.98v21.8l.28.28h17.61v12.62h-17.62c-.12.11-.18.17-.29.28"/><path fill="#f9a11b" d="M343.55 73.05c-.09-.09-.18-.19-.27-.28.08.09.17.19.27.28m-.28 12.91c.09-.1.18-.2.27-.29-.09.09-.18.19-.27.29m-203.98 34.15c-.1-.09-.19-.18-.29-.27.1.09.19.18.29.27m317.64 9.42c-3.79 0-6.86 3.07-6.86 6.86s3.07 6.86 6.86 6.86 6.86-3.07 6.86-6.86c-.01-3.79-3.08-6.86-6.86-6.86M91.41 46.15l-22.59.02v.08l-34.76 96.28h14.88l10.24-30.81h41.28l6.55 19.92 3.82 10.79h15.56zM63.54 98.58l15.62-45.95h1.4l15.56 45.95zm377.47 32.1h-9.26v-27.96c0-19.69-11.65-31.72-31.17-31.72-16.65 0-28.03 9.6-30.44 24.72l13.53.24c1.56-8.65 7.16-12.61 16.64-12.61 11.52 0 17 4.5 17.72 16.24l-26.2 2.55c-10.73 1-23.53 5.41-23.53 20.7 0 6.35 2.32 21.11 23.87 21.11 16.26 0 23.86-7.78 27.4-15.32v4.84c0 5.02 4.09 9.11 9.11 9.11h11.53l.83-.02zm-23.16-19.16c-.66 12.54-9.88 21.9-23.68 21.9-7.56 0-12.47-3.85-12.47-11.41 0-6.37 4.24-8.62 12.33-9.42l23.87-2.52c0 .06-.01.11-.01.17l.04-.01c0 .45-.05.87-.08 1.29m-162.61 7.76c-4.08 7.64-11.78 12.38-20.11 12.38s-16.04-4.74-20.11-12.38l-.15-.28-12.42 3.11.19.44c5.75 13.18 18.5 21.69 32.49 21.69s26.75-8.51 32.49-21.69l.19-.44-12.42-3.11zm-20.11-48.34c-19.64 0-35.62 16.44-35.62 36.65 0 .87.04 1.78.13 2.87l.03.37h70.92l.03-.37c.09-1.08.13-1.99.13-2.87 0-20.21-15.98-36.65-35.62-36.65m0 12.58c9.75 0 18.48 6.48 21.73 16.13l.06.18h-43.57l.06-.18c3.23-9.65 11.96-16.13 21.72-16.13"/><path fill="#f9a11b" d="M145.31 120.09c.79 8.83 7.42 12.05 15.5 12.05 5.7 0 15.63-1.2 15.24-9.1-.4-8.03-11.39-8.97-22.39-11.51-11.13-2.41-21.99-6.42-21.99-20.48 0-15.12 16.16-19.81 28.62-19.81 14.04 0 26.76 5.89 28.62 21.28h-15.77c-1.33-7.23-7.29-9.24-13.91-9.24-4.37 0-12.46 1.07-12.46 7.09 0 7.49 11.13 8.57 22.26 11.11 11 2.54 22.13 6.56 22.13 20.21 0 16.46-16.43 22.49-30.61 22.49-17.23 0-30.08-7.76-30.34-24.09z"/></svg>